<svg id="Capa_1" data-name="Capa 1" xmlns="http://www.w3.org/2000/svg" xmlns:xlink="http://www.w3.org/1999/xlink" viewBox="0 0 99.78 70"><defs><style>.cls-1{fill:none;}.cls-2{fill:#d3ae06;}.cls-3{opacity:0.1;}.cls-4{clip-path:url(#clip-path);}.cls-5{clip-path:url(#clip-path-2);}.cls-6{fill:#552e25;}</style><clipPath id="clip-path"><rect class="cls-1" x="7.38" y="22.24" width="20.96" height="20.95"/></clipPath><clipPath id="clip-path-2"><rect class="cls-1" x="7.38" y="22.24" width="20.96" height="20.95"/></clipPath></defs><rect class="cls-1" x="-420.22" y="-45.15" width="578" height="177.36"/><rect class="cls-1" x="-420.22" y="-45.15" width="578" height="177.36"/><path class="cls-2" d="M22.26,32.71l-4.39-4.39-4.4,4.39,4.4,4.4Zm-3.11,0L17.87,34l-1.29-1.29,1.29-1.28Z"/><path class="cls-2" d="M24.83,21.36l4.39,4.39,4.39-4.39L29.22,17Zm3.11,0,1.28-1.29,1.28,1.29-1.28,1.28Z"/><path class="cls-2" d="M2.12,21.36l4.39,4.39,4.4-4.39L6.51,17Zm3.11,0,1.28-1.29L7.8,21.36,6.51,22.64Z"/><path class="cls-2" d="M33.61,44.06l-4.39-4.39-4.39,4.39,4.39,4.4Zm-3.11,0-1.28,1.29-1.28-1.29,1.28-1.28Z"/><path class="cls-2" d="M10.91,44.06l-4.4-4.39L2.12,44.06l4.39,4.4Zm-3.11,0L6.51,45.35,5.23,44.06l1.28-1.28Z"/><path class="cls-2" d="M27.94,38.39,25.1,35.55l1.28-1.28,2.84,2.84,4.4-4.4-4.4-4.39-2.84,2.84L25.1,29.87,27.94,27l-4.4-4.39L20.7,25.48,19.42,24.2l2.84-2.84L17.87,17l-4.4,4.4,2.84,2.84L15,25.48l-2.84-2.84L7.8,27l2.83,2.84L9.35,31.16,6.51,28.32,2.12,32.71l4.39,4.4,2.84-2.84,1.28,1.28L7.8,38.39l4.39,4.39L15,39.94l1.28,1.29-2.84,2.84,4.4,4.39,4.39-4.39-2.84-2.84,1.28-1.29,2.84,2.84Zm0-5.68,1.28-1.28,1.28,1.28L29.22,34Zm-20.14,0L6.51,34,5.23,32.71l1.28-1.28Zm8.78-11.35,1.29-1.29,1.28,1.29-1.28,1.28Zm2.57,22.71-1.28,1.28-1.29-1.28,1.29-1.29ZM22,35.55l2.84,2.84-1.29,1.28L20.7,36.83l-2.83,2.84L15,36.83l-2.84,2.84-1.28-1.28,2.83-2.84-2.83-2.84,2.83-2.84L10.91,27l1.28-1.28L15,28.59l2.84-2.84,2.83,2.84,2.84-2.84L24.83,27,22,29.87l2.84,2.84Z"/><g class="cls-3"><g class="cls-4"><g class="cls-5"><path d="M9.35,34.27l.4.41,1.56-1.56-.4-.41ZM19.83,23.8l-1.56-1.57-.4.41,1.56,1.56ZM15.9,41.64l1.56,1.55.41-.41-1.56-1.55ZM9,30.75,7.38,32.31l.41.41,1.56-1.56Zm7-6.15,1.56,1.56.41-.4L16.31,24.2Zm12,8.11-1.56,1.56.4.41,1.56-1.56Zm-2-2-1.56,1.56.41.41,1.56-1.56Zm-8.1,8.92,1.55,1.56.41-.41-1.56-1.55Z"/></g></g></g><path class="cls-6" d="M68,31.89h1.87a.52.52,0,0,0,.52-.53V26.77a.53.53,0,0,1,.53-.52h.6a.54.54,0,0,1,.38.15l6.31,6.37a.52.52,0,0,0,.74,0l1.32-1.31a.53.53,0,0,0,0-.75l-4-4a.53.53,0,0,1,.19-.87,4.65,4.65,0,0,0,2.88-4.55,4.43,4.43,0,0,0-4.8-4.67H68a.53.53,0,0,0-.53.53v14.2a.53.53,0,0,0,.53.53m2.39-11.81a.53.53,0,0,1,.53-.53h3.67c1.89,0,1.89,1.26,1.89,1.75a1.86,1.86,0,0,1-2.11,2H70.94a.53.53,0,0,1-.53-.53Z"/><path class="cls-6" d="M80.45,50a.54.54,0,0,0-.74-.12l-.76.54c-5.34,3.85-9.81.26-12.71-2.78L62.86,44a.53.53,0,0,1,.2-.85,4.67,4.67,0,0,0,2.87-4.57,4.45,4.45,0,0,0-4.82-4.68H54.5a.53.53,0,0,0-.53.53V48.65a.53.53,0,0,0,.53.53h1.86a.53.53,0,0,0,.53-.53v-4.6a.54.54,0,0,1,.54-.53h.82a.54.54,0,0,1,.4.17l5.44,6,0,0c2.6,2.74,6.16,5.38,10.24,5.38a10.65,10.65,0,0,0,6.31-2.22l.76-.54a.53.53,0,0,0,.12-.75ZM60.89,40.59H57.43a.54.54,0,0,1-.54-.54V37.32a.54.54,0,0,1,.54-.53h3.68C63,36.79,63,38.06,63,38.54a1.86,1.86,0,0,1-2.11,2.05"/><path class="cls-6" d="M39.42,19.62H40a.41.41,0,0,1,.37.25l4.87,11.66a.4.4,0,0,0,.73,0l5.9-13.17c1-2.14,2.59-4.32,7.44-4.32h1.06a.4.4,0,0,0,.4-.4V11.53a.4.4,0,0,0-.4-.4H59.3c-3.18,0-7.67.63-10.11,6l-3.14,7a.4.4,0,0,1-.73,0L42.3,17a.4.4,0,0,0-.37-.25H39.42a.4.4,0,0,0-.4.4v2.13a.4.4,0,0,0,.4.39"/><path class="cls-6" d="M54.39,26.09v5.4a.39.39,0,0,0,.4.4H65.53a.4.4,0,0,0,.4-.4V29.37a.4.4,0,0,0-.4-.4H57.7a.4.4,0,0,1-.39-.4V26.09a.4.4,0,0,1,.39-.4h5.13a.39.39,0,0,0,.4-.39V23.17a.39.39,0,0,0-.4-.39H57.7a.4.4,0,0,1-.39-.4V20a.4.4,0,0,1,.39-.4h7.83a.4.4,0,0,0,.4-.4V17a.4.4,0,0,0-.4-.4H54.79a.39.39,0,0,0-.4.4v5.35a.4.4,0,0,1-.4.4h-.44a.39.39,0,0,0-.4.39V25.3a.39.39,0,0,0,.4.39H54a.4.4,0,0,1,.4.4"/><path class="cls-6" d="M51.1,44a.38.38,0,0,0-.56,0l-.71.66a4.72,4.72,0,0,1-2.66,1.28,4.61,4.61,0,1,1-.83-9.17,4.55,4.55,0,0,1,2.86.79.79.79,0,0,1,.34.65v1.2a.4.4,0,0,0,.4.4h2.13a.4.4,0,0,0,.4-.4V37a1.06,1.06,0,0,0-.29-.74l-.11-.12A7.54,7.54,0,1,0,46.93,48.9a7.78,7.78,0,0,0,4.94-2.14l.67-.63a.4.4,0,0,0,0-.56Z"/><path class="cls-6" d="M73.76,49.06a6.44,6.44,0,0,0,6.32-6.43V34.26a.4.4,0,0,0-.4-.4H76.21a.4.4,0,0,0-.4.4v2.13a.4.4,0,0,0,.4.4h.54a.4.4,0,0,1,.4.4v5.44a3.51,3.51,0,0,1-3.68,3.5,3.58,3.58,0,0,1-3.32-3.6V34.26a.4.4,0,0,0-.39-.4H67.62a.4.4,0,0,0-.4.4v8.23a6.56,6.56,0,0,0,6.54,6.57"/><path class="cls-6" d="M94.7,33.86H82a.4.4,0,0,0-.4.4v2.13a.4.4,0,0,0,.4.4H88.9a.4.4,0,0,1,.32.64L81.3,48.18a.4.4,0,0,0,.32.64h12.3a.4.4,0,0,0,.4-.4V44.74a.4.4,0,0,0-.4-.4H91.79a.4.4,0,0,0-.4.4v.75a.4.4,0,0,1-.4.4H87.42a.4.4,0,0,1-.32-.64L95,34.5a.4.4,0,0,0-.32-.64"/><path class="cls-6" d="M94.67,29h.1a.4.4,0,0,0,.4-.4V26.51a.39.39,0,0,0-.4-.39H93.1a.4.4,0,0,1-.37-.25l-4.12-9.73a.4.4,0,0,0-.73,0L81.45,31.33a.4.4,0,0,0,.37.56h2.3a.41.41,0,0,0,.37-.25l1-2.36a.4.4,0,0,1,.37-.25h4.77a.39.39,0,0,1,.37.25l1,2.36a.39.39,0,0,0,.36.25h2.31a.4.4,0,0,0,.36-.56l-.74-1.75a.4.4,0,0,1,.37-.55m-5.61-2.91H87.43a.4.4,0,0,1-.37-.56l.82-1.93a.4.4,0,0,1,.73,0l.82,1.93a.4.4,0,0,1-.37.56"/><path class="cls-6" d="M7.53,61.27c.15,0,.21.06.21.21v5.36c0,.15-.06.21-.21.21H7.2C7,67.05,7,67,7,66.84V63.9a10,10,0,0,1,.14-1.53h0a8.75,8.75,0,0,1-.65,1.37l-1,1.84a.29.29,0,0,1-.25.15H5a.29.29,0,0,1-.25-.15L3.65,63.72A8,8,0,0,1,3,62.37H3a8.86,8.86,0,0,1,.13,1.53v2.94c0,.15-.05.21-.21.21H2.6c-.15,0-.21-.06-.21-.21V61.48c0-.15.06-.21.21-.21h.29a.27.27,0,0,1,.3.16l1.87,3.33,1.86-3.32c.08-.14.12-.17.3-.17Z"/><path class="cls-6" d="M12.82,61.27c.17,0,.21.06.21.21v.31c0,.16,0,.21-.21.21H10.13v1.75h2.32c.16,0,.21.06.21.22v.3c0,.17-.05.22-.21.22H10.13v1.83h2.79c.16,0,.21.05.21.21v.31c0,.15-.05.21-.21.21H9.55c-.15,0-.21-.06-.21-.21V61.48c0-.15.06-.21.21-.21Z"/><path class="cls-6" d="M17.26,61.27c.16,0,.22.06.22.21v4.84H20c.16,0,.22.05.22.21v.31c0,.15-.06.21-.22.21H16.9c-.16,0-.21-.06-.21-.21V61.48c0-.15,0-.21.21-.21Z"/><path class="cls-6" d="M21.94,61.27c.16,0,.22.06.22.21v4.84h2.55c.16,0,.22.05.22.21v.31c0,.15-.06.21-.22.21H21.58c-.16,0-.21-.06-.21-.21V61.48c0-.15.05-.21.21-.21Z"/><path class="cls-6" d="M29.52,61.27c.16,0,.21.06.21.21v.31c0,.16-.05.21-.21.21H26.83v1.75h2.31c.17,0,.22.06.22.22v.3c0,.17-.05.22-.22.22H26.83v1.83h2.79c.16,0,.21.05.21.21v.31c0,.15,0,.21-.21.21H26.25c-.16,0-.21-.06-.21-.21V61.48c0-.15.05-.21.21-.21Z"/><path class="cls-6" d="M35.35,61.27c.16,0,.21.06.21.21v5.36c0,.15-.05.21-.21.21H35a.22.22,0,0,1-.21-.11l-2.32-3.37A6.37,6.37,0,0,1,32,62.8l-.24-.49h0s0,.2.07.56a9.1,9.1,0,0,1,.06,1v3c0,.15-.05.21-.21.21h-.34c-.15,0-.21-.06-.21-.21V61.48c0-.15.06-.21.21-.21h.36a.21.21,0,0,1,.21.11L34.2,64.7a7.65,7.65,0,0,1,.45.79l.25.51h0s0-.21-.07-.59a9.14,9.14,0,0,1-.06-1v-3c0-.15,0-.21.21-.21Z"/><path class="cls-6" d="M41.83,66.84q.08.21-.15.21h-.31c-.27,0-.34,0-.39-.19l-.51-1.32H38.06l-.5,1.32c-.06.16-.13.19-.39.19h-.29c-.14,0-.19-.07-.14-.21l2.11-5.41a.25.25,0,0,1,.27-.18h.33a.25.25,0,0,1,.26.18Zm-2.39-4.09a2.32,2.32,0,0,1-.15-.76h0v.11a2.26,2.26,0,0,1-.13.64l-.82,2.15h2Z"/><path class="cls-6" d="M46.88,61.27a2.07,2.07,0,0,1,2.35,2.15V64.9a2.07,2.07,0,0,1-2.35,2.15H45.1c-.15,0-.21-.06-.21-.21V61.48c0-.15.06-.21.21-.21Zm1.56,2.14c0-.9-.56-1.41-1.56-1.41h-1.2v4.32h1.2c1,0,1.56-.51,1.56-1.41Z"/><path class="cls-6" d="M54.15,61.27c.16,0,.21.06.21.21v.31c0,.16,0,.21-.21.21H51.46v1.75h2.31c.17,0,.22.06.22.22v.3c0,.17-.05.22-.22.22H51.46v1.83h2.79c.16,0,.21.05.21.21v.31c0,.15-.05.21-.21.21H50.88c-.16,0-.21-.06-.21-.21V61.48c0-.15,0-.21.21-.21Z"/><path class="cls-6" d="M57.17,63.11a2.11,2.11,0,0,1,2.4-2.19A2.11,2.11,0,0,1,62,63.11v1.64a2.11,2.11,0,0,1-2.41,2.19,2.11,2.11,0,0,1-2.4-2.19Zm3.48,0c0-.64-.35-1-1.08-1s-1.07.32-1.07,1v1.69c0,.63.38,1,1.07,1s1.08-.32,1.08-1Z"/><path class="cls-6" d="M65.81,61.05a1.75,1.75,0,0,1,1.92,1.87,1.65,1.65,0,0,1-.94,1.66l.17.29.84,1.6c.12.2.06.35-.17.35H67c-.42,0-.57-.06-.69-.32l-.6-1.25a.72.72,0,0,0-.81-.48h-.33v1.72c0,.25-.08.33-.33.33h-.66c-.25,0-.34-.08-.34-.33V61.38c0-.25.09-.33.34-.33Zm.55,1.87a.7.7,0,0,0-.17-.5.73.73,0,0,0-.51-.17H64.55v1.33h1.13a.61.61,0,0,0,.68-.66"/><path class="cls-6" d="M73.29,63.56c.25,0,.33.08.33.33V65A1.74,1.74,0,0,1,73,66.4a2.67,2.67,0,0,1-1.77.54,2.1,2.1,0,0,1-2.4-2.18V63.11a2.1,2.1,0,0,1,2.4-2.19,2.14,2.14,0,0,1,2.27,1.37.28.28,0,0,1-.2.42l-.63.22c-.23.08-.33,0-.42-.2a1,1,0,0,0-1-.59q-1.08,0-1.08,1v1.66c0,.65.36,1,1.08,1s1.09-.29,1.09-.71v-.29h-1c-.25,0-.33-.08-.33-.33v-.51c0-.25.08-.33.33-.33Z"/><path class="cls-6" d="M76.1,64.82c0,.59.36.92,1,.92s1-.31,1-.92V61.38c0-.25.09-.34.34-.34h.66c.25,0,.33.09.33.34v3.41a2.36,2.36,0,0,1-4.71,0V61.38c0-.25.08-.34.33-.34h.66c.25,0,.33.09.33.34Z"/><path class="cls-6" d="M81.83,61c.26,0,.34.09.34.34v4.23h2.1c.23,0,.33.1.33.33v.55c0,.25-.08.33-.33.33h-3.1c-.25,0-.33-.08-.33-.33V61.38c0-.25.08-.34.33-.34Z"/><path class="cls-6" d="M86.58,61c.25,0,.33.09.33.34v4.23H89c.24,0,.34.1.34.33v.55c0,.25-.09.33-.34.33H85.92c-.25,0-.33-.08-.33-.33V61.38c0-.25.08-.34.33-.34Z"/><path class="cls-6" d="M90.11,63.11a2.42,2.42,0,0,1,4.81,0v1.64a2.42,2.42,0,0,1-4.81,0Zm3.48,0c0-.64-.36-1-1.08-1s-1.07.32-1.07,1v1.69c0,.63.38,1,1.07,1s1.08-.32,1.08-1Z"/></svg>